<svg width="146" height="32" viewBox="0 0 146 32" fill="none" xmlns="http://www.w3.org/2000/svg">
<path d="M33.3049 26.2057L36.0328 6.70864C37.5525 6.55734 39.6712 6.48169 42.3888 6.48169C44.7711 6.48169 46.4208 6.85994 47.3381 7.613C48.2554 8.36607 48.5771 9.72433 48.293 11.6809C48.0877 13.0942 47.6838 14.1499 47.0848 14.8445C46.4858 15.5425 45.5925 15.9483 44.4117 16.0583L44.3843 16.1993C46.9719 16.4056 48.0226 18.1593 47.5332 21.457C47.232 23.417 46.5954 24.734 45.6199 25.4114C44.6444 26.0888 43.0323 26.4293 40.7836 26.4293C37.5046 26.4327 35.0129 26.357 33.3049 26.2057ZM36.3717 24.005L40.366 24.0325C41.9028 24.0325 42.981 23.8124 43.6005 23.3689C44.22 22.9253 44.6239 22.0553 44.8087 20.7555C44.997 19.3628 44.8498 18.4241 44.374 17.9427C43.8948 17.4613 42.8988 17.2137 41.3791 17.1931H37.3301L36.3717 24.005ZM37.6381 15.0164H41.5195C42.868 15.0164 43.8401 14.7894 44.4322 14.339C45.0243 13.8885 45.4111 13.0392 45.5993 11.7944C45.7671 10.6081 45.6165 9.82749 45.1476 9.44924C44.6786 9.07443 43.7134 8.8853 42.2519 8.8853H38.4835L37.6381 15.0164Z" fill="white"/>
<path d="M60.5326 12.417H63.3735C62.3604 16.901 61.0392 20.6973 59.4066 23.8058C57.9451 26.5945 56.4938 28.5718 55.0597 29.7409C53.6256 30.91 51.9142 31.6631 49.9256 32.0001L49.4191 30.0504C50.6204 29.7684 51.6678 29.3454 52.568 28.7781C53.4681 28.2141 54.3307 27.3545 55.1555 26.206H53.8891C53.4579 26.206 53.0916 26.0891 52.7939 25.8518C52.4927 25.618 52.3044 25.2913 52.2325 24.8752L49.5902 12.4136H52.4619L54.5429 23.5754C54.5976 23.8952 54.7859 24.0568 55.1042 24.0568H56.4836C56.5589 23.9261 56.6615 23.7301 56.7916 23.4791C56.9217 23.2247 57.0072 23.0596 57.0449 22.984C58.6946 19.5384 59.8584 16.0173 60.5326 12.417Z" fill="white"/>
<path d="M68.9696 14.5351L67.8709 22.2789C67.7785 22.9391 67.8367 23.3861 68.0523 23.62C68.268 23.8572 68.7027 23.9741 69.3598 23.9741H71.4134L71.5264 26.0923C70.7015 26.3365 69.6336 26.4603 68.3193 26.4603C67.1008 26.4603 66.2246 26.1199 65.6907 25.4424C65.1567 24.765 64.9719 23.7953 65.143 22.5334L66.2691 14.5351H63.7671L64.0204 12.5579L66.5806 12.4169L67.1727 8.37646H69.8458L69.2845 12.4169H73.5047L73.2241 14.5351H68.9696Z" fill="white"/>
<path d="M84.8066 23.9192L84.9743 25.7555C83.6429 26.2816 81.757 26.5464 79.32 26.5464C76.9754 26.5464 75.3531 25.9308 74.4529 24.6964C73.5527 23.4619 73.2721 21.5466 73.6075 18.947C73.9634 16.2923 74.6891 14.4767 75.7878 13.507C76.883 12.5373 78.6902 12.0525 81.2025 12.0525C83.3417 12.0525 84.7929 12.4307 85.563 13.1838C86.3332 13.9369 86.6138 15.0475 86.4085 16.5193C86.1826 17.8569 85.6589 18.8232 84.834 19.4146C84.0091 20.0095 82.7427 20.3706 81.0382 20.5012L76.284 20.9242C76.2635 22.224 76.5373 23.1043 77.0987 23.5651C77.66 24.0258 78.543 24.2562 79.741 24.2562C81.0177 24.2562 82.7051 24.1462 84.8066 23.9192ZM76.4518 18.8885L81.0382 18.4656C81.9007 18.4105 82.5305 18.2249 82.9241 17.9154C83.3177 17.6059 83.571 17.0626 83.684 16.2889C83.7969 15.4052 83.6497 14.8584 83.2493 14.6487C82.8454 14.4423 82.0274 14.3392 80.7884 14.3392C79.3645 14.3392 78.3548 14.6349 77.7661 15.2298C77.1705 15.8212 76.7324 17.042 76.4518 18.8885Z" fill="white"/>
<path d="M92.7097 6.42676L91.9499 12.1349C91.7822 13.3797 91.5357 14.4319 91.2174 15.2985C92.1176 14.3941 93.1068 13.6307 94.1849 13.0083C95.2631 12.3859 96.2625 12.0764 97.1798 12.0764C98.2682 12.0764 99.1034 12.2793 99.6818 12.6851C100.264 13.0908 100.674 13.8439 100.921 14.9443C101.164 16.0446 101.126 17.5576 100.808 19.4798C100.603 21.0238 100.312 22.2823 99.9351 23.252C99.5586 24.2217 99.0726 24.9438 98.4736 25.4149C97.8746 25.886 97.2654 26.1955 96.6459 26.3468C96.0263 26.4981 95.2288 26.5738 94.2568 26.5738C91.9704 26.5738 89.6635 26.2333 87.3361 25.5559L90.0092 6.42676H92.7097ZM91.1627 17.4476L90.2351 24.2286C91.5836 24.2836 92.5865 24.3146 93.2437 24.3146C95.0235 24.3146 96.1975 24.0292 96.7588 23.4515C97.3201 22.8772 97.7514 21.488 98.0526 19.2838C98.3162 17.231 98.3435 15.9105 98.1382 15.326C97.9328 14.7414 97.3989 14.4491 96.5363 14.4491C95.2049 14.4525 93.4148 15.4498 91.1627 17.4476Z" fill="white"/>
<path d="M114.369 26.2057H112.229L112.342 23.6611C110.693 25.5833 108.725 26.5427 106.435 26.5427C104.764 26.5427 103.642 25.996 103.06 24.9025C102.478 23.809 102.375 21.8868 102.752 19.1393C102.957 17.6126 103.248 16.3643 103.625 15.3946C104.001 14.4249 104.497 13.7028 105.117 13.2317C105.737 12.7606 106.373 12.4443 107.03 12.2861C107.687 12.1279 108.529 12.0454 109.563 12.0454C111.795 12.0454 114.037 12.2896 116.285 12.7813L114.369 26.2057ZM112.315 21.2335L113.301 14.394C111.576 14.3562 110.61 14.339 110.405 14.339C109.43 14.339 108.69 14.3871 108.184 14.48C107.677 14.5728 107.232 14.8135 106.849 15.2021C106.466 15.5872 106.181 16.0824 106.003 16.6841C105.826 17.2859 105.651 18.1731 105.483 19.3388C105.22 21.3916 105.189 22.7121 105.384 23.2932C105.582 23.8778 106.12 24.1701 107.003 24.1701C107.865 24.1701 108.707 23.9294 109.536 23.4479C110.354 22.9734 111.285 22.2341 112.315 21.2335Z" fill="white"/>
<path d="M121.457 12.417L121.317 15.3846C123.791 13.1632 125.958 12.0491 127.813 12.0491C128.977 12.0491 129.856 12.3826 130.455 13.0532C131.054 13.7237 131.26 14.6796 131.075 15.921L129.613 26.206H126.913L128.234 16.5984C128.347 15.7319 128.313 15.1438 128.135 14.8309C127.957 14.5215 127.567 14.3633 126.968 14.3633C126.198 14.3633 125.397 14.6005 124.562 15.0682C123.726 15.5393 122.635 16.313 121.286 17.3858L120.078 26.2025H117.35L119.291 12.4136H121.457V12.417Z" fill="white"/>
<path d="M143.058 12.4169H145.844C145.057 14.8858 143.537 16.9284 141.288 18.548C141.569 18.9812 141.85 19.528 142.134 20.1882L144.807 26.2058H141.88L139.238 19.8478C138.393 20.3017 137.308 20.8278 135.976 21.4296L135.275 26.2058H132.574L135.329 6.42676H138.057L136.818 15.6939C136.651 16.8252 136.349 17.9531 135.918 19.0844C137.698 18.2351 139.242 17.2447 140.546 16.1031C141.843 14.9649 142.681 13.7373 143.058 12.4169Z" fill="white"/>
<path d="M13.6311 20.03H0.155884V26.8007H13.6311V20.03Z" fill="white"/>
<path d="M20.3225 6.53687H6.84729V20.0748H20.3225V6.53687Z" fill="white"/>
<path d="M6.8028 0H0.248291V6.49216H6.8028V0Z" fill="white"/>
<path d="M26.7368 0H20.2747V6.49216H26.7368V0Z" fill="white"/>
</svg>
