<svg width="30" height="30" viewBox="0 0 30 30" fill="none" xmlns="http://www.w3.org/2000/svg">
<path d="M0.00499511 29.6L2.12499 21.68C0.924995 19.51 0.294995 17.08 0.294995 14.62C0.294995 6.56 6.85499 0 14.905 0C22.955 0 29.525 6.56 29.525 14.62C29.525 22.68 22.965 29.24 14.905 29.24C12.485 29.24 10.095 28.63 7.95499 27.47L-0.00500488 29.6H0.00499511ZM8.355 24.5L8.855 24.8C10.695 25.9 12.785 26.48 14.905 26.48C21.445 26.48 26.755 21.16 26.755 14.63C26.755 8.1 21.445 2.77 14.905 2.77C8.365 2.77 3.055 8.08 3.055 14.62C3.055 16.78 3.65499 18.9 4.785 20.77L5.095 21.27L3.915 25.69L8.355 24.5Z" fill="white"/>
<path fill-rule="evenodd" clip-rule="evenodd" d="M20.345 16.6501C19.745 16.2901 18.965 15.8901 18.255 16.1801C17.715 16.4001 17.365 17.2501 17.015 17.6901C16.835 17.9101 16.615 17.9501 16.345 17.8401C14.305 17.0301 12.745 15.6601 11.615 13.7901C11.425 13.5001 11.455 13.2701 11.685 13.0001C12.025 12.6001 12.455 12.1401 12.545 11.6001C12.635 11.0601 12.385 10.4301 12.165 9.95013C11.875 9.34013 11.565 8.46013 10.945 8.11013C10.375 7.79013 9.63503 7.97013 9.13503 8.38013C8.26503 9.09013 7.84503 10.2001 7.85503 11.3001C7.85503 11.6101 7.89503 11.9201 7.96503 12.2301C8.14503 12.9601 8.47503 13.6301 8.85503 14.2801C9.13503 14.7701 9.44503 15.2401 9.78503 15.6901C10.875 17.1701 12.235 18.4601 13.805 19.4201C14.595 19.9001 15.435 20.3201 16.315 20.6101C17.295 20.9301 18.175 21.2701 19.235 21.0701C20.345 20.8601 21.445 20.1701 21.885 19.1001C22.015 18.7801 22.085 18.4301 22.005 18.1001C21.855 17.4101 20.915 17.0001 20.355 16.6601L20.345 16.6501Z" fill="white"/>
</svg>
